<?xml version="1.0" encoding="UTF-8" standalone="no"?>
<!-- Created with Inkscape (http://www.inkscape.org/) -->

<svg
   xmlns:dc="http://purl.org/dc/elements/1.1/"
   xmlns:cc="http://creativecommons.org/ns#"
   xmlns:rdf="http://www.w3.org/1999/02/22-rdf-syntax-ns#"
   xmlns:svg="http://www.w3.org/2000/svg"
   xmlns="http://www.w3.org/2000/svg"
   xmlns:sodipodi="http://sodipodi.sourceforge.net/DTD/sodipodi-0.dtd"
   xmlns:inkscape="http://www.inkscape.org/namespaces/inkscape"
   version="1.1"
   id="svg3713"
   xml:space="preserve"
   width="545"
   height="145"
   viewBox="0 0 545 145"
   sodipodi:docname="Break-Logo-Black.svg"
   inkscape:version="0.92.4 (5da689c313, 2019-01-14)"><metadata
     id="metadata3719"><rdf:RDF><cc:Work
         rdf:about=""><dc:format>image/svg+xml</dc:format><dc:type
           rdf:resource="http://purl.org/dc/dcmitype/StillImage" /><dc:title></dc:title></cc:Work></rdf:RDF></metadata><defs
     id="defs3717"><clipPath
       clipPathUnits="userSpaceOnUse"
       id="clipPath3729"><path
         d="M 0,280.63 H 595.276 V 0 H 0 Z"
         id="path3727"
         inkscape:connector-curvature="0" /></clipPath><linearGradient
       x1="0"
       y1="0"
       x2="1"
       y2="0"
       gradientUnits="userSpaceOnUse"
       gradientTransform="matrix(80.161102,0,0,-80.161087,100.99805,131.09375)"
       spreadMethod="pad"
       id="linearGradient3789"><stop
         style="stop-opacity:1;stop-color:#535351"
         offset="0"
         id="stop3785" /><stop
         style="stop-opacity:1;stop-color:#ffffff"
         offset="1"
         id="stop3787" /></linearGradient><clipPath
       clipPathUnits="userSpaceOnUse"
       id="clipPath3799"><path
         d="M 0,280.63 H 595.276 V 0 H 0 Z"
         id="path3797"
         inkscape:connector-curvature="0" /></clipPath><linearGradient
       x1="0"
       y1="0"
       x2="1"
       y2="0"
       gradientUnits="userSpaceOnUse"
       gradientTransform="matrix(40.083496,0,0,-40.083496,152.87891,112.86426)"
       spreadMethod="pad"
       id="linearGradient3821"><stop
         style="stop-opacity:1;stop-color:#535351"
         offset="0"
         id="stop3817" /><stop
         style="stop-opacity:1;stop-color:#ffffff"
         offset="1"
         id="stop3819" /></linearGradient><clipPath
       clipPathUnits="userSpaceOnUse"
       id="clipPath3831"><path
         d="M 0,280.63 H 595.276 V 0 H 0 Z"
         id="path3829"
         inkscape:connector-curvature="0" /></clipPath></defs><sodipodi:namedview
     pagecolor="#ffffff"
     bordercolor="#666666"
     borderopacity="1"
     objecttolerance="10"
     gridtolerance="10"
     guidetolerance="10"
     inkscape:pageopacity="0"
     inkscape:pageshadow="2"
     inkscape:window-width="1680"
     inkscape:window-height="987"
     id="namedview3715"
     showgrid="false"
     inkscape:zoom="1.9591752"
     inkscape:cx="396.85068"
     inkscape:cy="187.08667"
     inkscape:window-x="-8"
     inkscape:window-y="-8"
     inkscape:window-maximized="1"
     inkscape:current-layer="g3721" /><g
     id="g3721"
     inkscape:groupmode="layer"
     inkscape:label="Break Logo Black"
     transform="matrix(1.3333333,0,0,-1.3333333,0,144.99999)"><g
       id="g3723"
       transform="translate(-95.703542,-78.476904)"><g
         id="g3725"
         clip-path="url(#clipPath3729)"><g
           id="g3731"
           transform="translate(208.2192,102.3486)"><path
             d="m 0,0 c 0,-2.049 0.385,-3.531 1.155,-4.453 0.77,-0.917 1.746,-1.379 2.928,-1.379 1.091,0 2.007,0.451 2.748,1.358 0.74,0.903 1.109,2.425 1.109,4.564 0,1.885 -0.361,3.266 -1.087,4.15 C 6.128,5.122 5.249,5.563 4.217,5.563 2.976,5.563 1.962,5.102 1.177,4.185 0.392,3.263 0,1.87 0,0 m -0.606,-11.979 v 0 h -8.547 v 32.886 h 9.22 V 9.512 c 0.912,0.957 1.948,1.675 3.107,2.153 1.159,0.479 2.441,0.718 3.847,0.718 2.901,0 5.302,-1.044 7.201,-3.127 1.9,-2.09 2.849,-5.084 2.849,-8.985 0,-2.604 -0.434,-4.897 -1.301,-6.878 -0.868,-1.982 -2.067,-3.462 -3.601,-4.441 -1.532,-0.977 -3.233,-0.931 -5.103,-0.931 z"
             style="fill:#231f20;fill-opacity:1;fill-rule:nonzero;stroke:none"
             id="path3733"
             inkscape:connector-curvature="0" /></g><g
           id="g3735"
           transform="translate(246.9897,114.1934)"><path
             d="m 0,0 -3.861,-7.224 c -1.076,0.449 -1.929,0.674 -2.557,0.674 -1.197,0 -2.124,-0.494 -2.782,-1.48 -0.942,-1.392 -1.413,-3.993 -1.413,-7.808 v -7.986 h -9.175 V 0 Z"
             style="fill:#231f20;fill-opacity:1;fill-rule:nonzero;stroke:none"
             id="path3737"
             inkscape:connector-curvature="0" /></g><g
           id="g3739"
           transform="translate(263.9551,104.3896)"><path
             d="m 0,0 c -0.18,1.766 -0.654,3.028 -1.424,3.791 -0.771,0.763 -1.784,1.145 -3.04,1.145 -1.451,0 -2.609,-0.577 -3.477,-1.727 C -8.494,2.491 -8.846,1.421 -8.995,0 Z M 9.287,-4.374 H -9.018 c 0.165,-1.466 0.561,-2.558 1.189,-3.275 0.883,-1.032 2.034,-1.547 3.454,-1.547 0.898,0 1.75,0.223 2.558,0.673 0.494,0.284 1.024,0.784 1.592,1.502 H 9.287 C 7.912,-9.414 5.735,-11.961 3.791,-13 c -1.944,-1.037 -4.733,-1.558 -8.367,-1.558 -3.155,0 -5.638,0.447 -7.448,1.332 -1.809,0.892 -3.308,2.305 -4.497,4.245 -1.189,1.932 -1.784,4.211 -1.784,6.829 0,3.722 1.193,6.737 3.578,9.039 2.386,2.303 5.679,3.455 9.882,3.455 3.409,0 6.101,-0.516 8.075,-1.548 C 5.205,7.763 6.707,6.267 7.739,4.307 8.771,2.349 9.287,-0.202 9.287,-3.341 Z"
             style="fill:#231f20;fill-opacity:1;fill-rule:nonzero;stroke:none"
             id="path3741"
             inkscape:connector-curvature="0" /></g><g
           id="g3743"
           transform="translate(293.6807,101.6758)"><path
             d="M 0,0 C -1.256,-0.448 -2.565,-0.845 -3.926,-1.189 -5.78,-1.682 -6.954,-2.168 -7.447,-2.647 -7.956,-3.142 -8.21,-3.702 -8.21,-4.329 c 0,-0.718 0.251,-1.306 0.752,-1.76 0.5,-0.459 1.236,-0.685 2.209,-0.685 1.018,0 1.963,0.247 2.838,0.739 0.875,0.494 1.495,1.095 1.862,1.806 C -0.184,-3.52 0,-2.595 0,-1.458 Z m 8.927,-11.307 -8.41,-4.431 v 2.637 4.711 c -1.198,-1.152 -2.386,-1.973 -3.568,-2.467 -1.615,-0.658 -3.492,-0.987 -5.631,-0.987 -2.84,0 -4.998,0.657 -6.47,1.974 -1.474,1.315 -2.21,2.938 -2.21,4.868 0,1.81 0.53,3.297 1.592,4.464 1.062,1.166 3.021,2.034 5.877,2.602 3.425,0.687 5.646,1.169 6.663,1.449 C -2.213,3.786 -1.137,4.15 0,4.6 0,5.721 -0.231,6.505 -0.695,6.954 -1.159,7.402 -1.974,7.628 -3.14,7.628 -4.636,7.628 -5.758,7.389 -6.506,6.909 -7.089,6.536 -7.56,5.833 -7.919,4.8 l -8.727,0.921 c 0.331,1.525 0.805,2.726 1.425,3.599 0.621,0.877 1.515,1.635 2.681,2.278 0.838,0.464 1.989,0.823 3.455,1.077 1.465,0.254 3.051,0.381 4.756,0.381 2.736,0 4.934,-0.155 6.595,-0.461 C 3.926,12.288 5.31,11.65 6.415,10.677 7.192,10.006 7.806,9.05 8.254,7.819 8.702,6.582 8.927,5.405 8.927,4.284 V -6.235 Z"
             style="fill:#231f20;fill-opacity:1;fill-rule:nonzero;stroke:none"
             id="path3745"
             inkscape:connector-curvature="0" /></g><g
           id="g3747"
           transform="translate(317.4111,90.3691)"><path
             d="M 0,0 H -9.332 V 32.887 H 0 V 15.912 l 6.819,7.912 h 11.24 L 9.512,15.479 18.552,0 H 8.265 L 3.439,9.549 Z"
             style="fill:#231f20;fill-opacity:1;fill-rule:nonzero;stroke:none"
             id="path3749"
             inkscape:connector-curvature="0" /></g><g
           id="g3751"
           transform="translate(387.9756,104.3896)"><path
             d="m 0,0 c -0.179,1.766 -0.653,3.028 -1.425,3.791 -0.767,0.763 -1.782,1.145 -3.039,1.145 -1.45,0 -2.609,-0.577 -3.477,-1.727 C -8.494,2.491 -8.846,1.421 -8.994,0 Z M 9.288,-4.374 H -9.018 c 0.165,-1.466 0.561,-2.558 1.19,-3.275 0.882,-1.032 2.033,-1.547 3.454,-1.547 0.896,0 1.749,0.223 2.557,0.673 0.494,0.284 1.025,0.784 1.593,1.502 H 9.288 C 7.912,-9.414 5.735,-11.961 3.791,-13 c -1.944,-1.037 -4.732,-1.558 -8.367,-1.558 -3.155,0 -5.638,0.447 -7.447,1.332 -1.81,0.892 -3.311,2.305 -4.497,4.245 -1.191,1.932 -1.785,4.211 -1.785,6.829 0,3.722 1.192,6.737 3.579,9.039 2.383,2.303 5.679,3.455 9.881,3.455 3.409,0 6.102,-0.516 8.075,-1.548 C 5.205,7.763 6.708,6.267 7.739,4.307 8.771,2.349 9.288,-0.202 9.288,-3.341 Z"
             style="fill:#231f20;fill-opacity:1;fill-rule:nonzero;stroke:none"
             id="path3753"
             inkscape:connector-curvature="0" /></g><g
           id="g3755"
           transform="translate(399.3379,97.8398)"><path
             d="m 0,0 h 9.063 c 0.373,-1.076 0.896,-1.847 1.57,-2.311 0.673,-0.462 1.57,-0.696 2.691,-0.696 1.226,0 2.179,0.263 2.852,0.786 0.523,0.386 0.781,0.873 0.781,1.456 0,0.656 -0.343,1.163 -1.031,1.523 C 15.434,1.012 14.127,1.323 12.002,1.697 8.832,2.251 6.629,2.763 5.395,3.233 4.161,3.704 3.122,4.499 2.277,5.617 1.433,6.74 1.011,8.019 1.011,9.451 c 0,1.568 0.454,2.922 1.367,4.056 0.911,1.136 2.168,1.983 3.768,2.545 1.599,0.558 3.749,0.84 6.44,0.84 2.841,0 4.935,-0.217 6.291,-0.651 1.351,-0.433 2.482,-1.107 3.391,-2.018 0.901,-0.912 1.653,-2.998 2.253,-4.554 h -8.66 c -0.224,0.762 -0.597,1.323 -1.121,1.682 -0.719,0.478 -1.586,0.717 -2.602,0.717 -1.033,0 -1.784,-0.181 -2.256,-0.547 -0.471,-0.367 -0.705,-0.811 -0.705,-1.334 0,-0.583 0.299,-1.023 0.896,-1.321 0.6,-0.3 1.9,-0.568 3.905,-0.807 3.035,-0.341 5.293,-0.82 6.773,-1.433 1.481,-0.613 2.613,-1.485 3.4,-2.624 0.784,-1.136 1.177,-2.382 1.177,-3.739 0,-1.376 -0.414,-2.713 -1.246,-4.014 -0.828,-1.299 -2.139,-2.333 -3.924,-3.103 -1.79,-0.771 -4.221,-1.154 -7.302,-1.154 -4.353,0 -7.454,0.62 -9.3,1.862 C 1.709,-4.906 0.523,-2.288 0,0"
             style="fill:#231f20;fill-opacity:1;fill-rule:nonzero;stroke:none"
             id="path3757"
             inkscape:connector-curvature="0" /></g><path
           d="m 428.409,114.193 h 9.133 V 90.369 h -9.133 z m 0,9.063 h 9.133 v -6.213 h -9.133 z"
           style="fill:#231f20;fill-opacity:1;fill-rule:nonzero;stroke:none"
           id="path3759"
           inkscape:connector-curvature="0" /><g
           id="g3761"
           transform="translate(451.3564,102.6406)"><path
             d="m 0,0 c 0,-1.721 0.365,-2.996 1.098,-3.823 0.733,-0.832 1.698,-1.246 2.893,-1.246 1.138,0 2.089,0.427 2.863,1.291 0.767,0.856 1.154,2.155 1.154,3.89 0,1.735 -0.405,3.063 -1.212,3.982 C 5.988,5.016 5.001,5.474 3.835,5.474 2.668,5.474 1.738,5.049 1.04,4.208 0.349,3.359 0,1.959 0,0 m 8.591,11.553 h 8.547 v -22.499 l 0.021,-1.055 c 0,-1.496 -0.317,-2.919 -0.954,-4.275 -0.636,-1.35 -1.48,-2.449 -2.532,-3.286 -1.056,-0.836 -2.395,-1.443 -4.018,-1.817 -1.623,-0.373 -3.479,-0.56 -5.573,-0.56 -4.786,0 -8.074,0.718 -9.86,2.154 -1.788,1.434 -2.679,3.357 -2.679,5.764 0,0.299 -0.031,-0.208 0,0.299 l 8.904,-0.096 c 0.225,-0.824 0.569,-1.392 1.032,-1.705 0.673,-0.463 1.518,-0.695 2.536,-0.695 1.315,0 2.3,0.351 2.949,1.053 0.651,0.704 0.975,1.93 0.975,3.68 v 3.611 c -0.896,-1.063 -1.793,-1.833 -2.691,-2.312 -1.405,-0.747 -2.923,-1.121 -4.554,-1.121 -3.185,0 -5.757,1.392 -7.717,4.173 -1.39,1.975 -2.086,4.584 -2.086,7.828 0,3.709 0.897,6.537 2.693,8.481 1.794,1.944 4.142,2.378 7.043,2.378 h 4.586 z"
             style="fill:#231f20;fill-opacity:1;fill-rule:nonzero;stroke:none"
             id="path3763"
             inkscape:connector-curvature="0" /></g><g
           id="g3765"
           transform="translate(474.0117,114.1934)"><path
             d="m 0,0 h 8.502 3.858 4.756 c 2.529,0 4.505,-0.212 5.935,-1.717 1.427,-1.501 2.141,-3.825 2.141,-6.964 v -15.143 h -9.174 v 13.101 c 0,1.495 -0.277,2.552 -0.83,3.172 -0.554,0.621 -1.331,0.933 -2.334,0.933 -1.106,0 -2.003,-0.418 -2.692,-1.255 -0.687,-0.839 -1.031,-2.341 -1.031,-4.511 v -11.44 H 0 Z"
             style="fill:#231f20;fill-opacity:1;fill-rule:nonzero;stroke:none"
             id="path3767"
             inkscape:connector-curvature="0" /></g><g
           id="g3769"
           transform="translate(110.5898,91.5293)"><path
             d="m 0,0 h 40.081 l 12.79,31.781 27.296,14.893 v 46.67 z"
             style="fill:#231f20;fill-opacity:1;fill-rule:nonzero;stroke:none"
             id="path3771"
             inkscape:connector-curvature="0" /></g></g></g><g
       id="g3773"
       transform="translate(-95.703542,-78.476904)"><g
         id="g3775"><g
           id="g3781"><g
             id="g3783"><path
               d="m 141.078,177.764 -12.788,-31.781 -27.292,-14.89 v -46.67 l 80.161,93.341 z"
               style="fill:url(#linearGradient3789);stroke:none"
               id="path3791"
               inkscape:connector-curvature="0" /></g></g></g></g><g
       id="g3793"
       transform="translate(-95.703542,-78.476904)"><g
         id="g3795"
         clip-path="url(#clipPath3799)"><g
           id="g3801"
           transform="translate(141.0781,177.7646)"><path
             d="m 0,0 -12.788,-31.782 -27.292,-14.89 v -46.67 L 40.081,0 Z"
             style="fill:none;stroke:#231f20;stroke-width:0.5;stroke-linecap:butt;stroke-linejoin:miter;stroke-miterlimit:4;stroke-dasharray:none;stroke-opacity:1"
             id="path3803"
             inkscape:connector-curvature="0" /></g></g></g><g
       id="g3805"
       transform="translate(-95.703542,-78.476904)"><g
         id="g3807"><g
           id="g3813"><g
             id="g3815"><path
               d="M 165.667,121.308 152.878,89.527 h 40.085 v 46.674 z"
               style="fill:url(#linearGradient3821);stroke:none"
               id="path3823"
               inkscape:connector-curvature="0" /></g></g></g></g><g
       id="g3825"
       transform="translate(-95.703542,-78.476904)"><g
         id="g3827"
         clip-path="url(#clipPath3831)"><g
           id="g3833"
           transform="translate(165.667,121.3086)"><path
             d="M 0,0 27.295,14.892 V -31.781 H -12.788 Z"
             style="fill:none;stroke:#231f20;stroke-width:0.5;stroke-linecap:butt;stroke-linejoin:miter;stroke-miterlimit:4;stroke-dasharray:none;stroke-opacity:1"
             id="path3835"
             inkscape:connector-curvature="0" /></g><g
           id="g3837"
           transform="translate(126.0845,147.9868)"><path
             d="M 0,0 -27.294,-14.887 V 31.782 H 12.787 Z"
             style="fill:#231f20;fill-opacity:1;fill-rule:nonzero;stroke:none"
             id="path3839"
             inkscape:connector-curvature="0" /></g><g
           id="g3841"
           transform="translate(357.1533,106.5332)"><path
             d="m 0,0 c -0.785,0.917 -1.8,1.379 -3.04,1.379 -1.032,0 -1.909,-0.441 -2.635,-1.323 -0.725,-0.884 -1.09,-2.266 -1.09,-4.151 0,-2.138 0.372,-3.661 1.112,-4.563 0.741,-0.907 1.655,-1.359 2.747,-1.359 1.181,0 2.159,0.462 2.928,1.379 0.771,0.922 1.155,2.405 1.155,4.453 C 1.177,-2.314 0.785,-0.922 0,0 m -5.887,-16.164 c -1.869,0 -3.571,-0.046 -5.105,0.932 -1.532,0.978 -2.732,2.459 -3.599,4.44 -0.867,1.981 -1.301,4.274 -1.301,6.878 0,3.901 0.948,6.895 2.846,8.985 1.9,2.083 4.303,3.127 7.204,3.127 1.405,0 2.687,-0.239 3.846,-0.718 C -0.837,7.002 0.2,6.284 1.112,5.327 V 16.723 H 10.33 V -16.164 H 1.785 Z"
             style="fill:#231f20;fill-opacity:1;fill-rule:nonzero;stroke:none"
             id="path3843"
             inkscape:connector-curvature="0" /></g></g></g></g></svg>