<?xml version="1.0" encoding="UTF-8" standalone="no"?>
<!-- Created with Inkscape (http://www.inkscape.org/) -->

<svg
   xmlns:dc="http://purl.org/dc/elements/1.1/"
   xmlns:cc="http://creativecommons.org/ns#"
   xmlns:rdf="http://www.w3.org/1999/02/22-rdf-syntax-ns#"
   xmlns:svg="http://www.w3.org/2000/svg"
   xmlns="http://www.w3.org/2000/svg"
   xmlns:sodipodi="http://sodipodi.sourceforge.net/DTD/sodipodi-0.dtd"
   xmlns:inkscape="http://www.inkscape.org/namespaces/inkscape"
   version="1.1"
   id="svg3713"
   xml:space="preserve"
   width="410"
   height="65"
   viewBox="0 0 410 65"
   sodipodi:docname="Break-Logo-white-text.svg"
   inkscape:version="0.92.4 (5da689c313, 2019-01-14)"><metadata
     id="metadata3719"><rdf:RDF><cc:Work
         rdf:about=""><dc:format>image/svg+xml</dc:format><dc:type
           rdf:resource="http://purl.org/dc/dcmitype/StillImage" /><dc:title></dc:title></cc:Work></rdf:RDF></metadata><defs
     id="defs3717"><clipPath
       clipPathUnits="userSpaceOnUse"
       id="clipPath3729"><path
         d="M 0,280.63 H 595.276 V 0 H 0 Z"
         id="path3727"
         inkscape:connector-curvature="0" /></clipPath><linearGradient
       x1="0"
       y1="0"
       x2="1"
       y2="0"
       gradientUnits="userSpaceOnUse"
       gradientTransform="matrix(80.161102,0,0,-80.161087,100.99805,131.09375)"
       spreadMethod="pad"
       id="linearGradient3789"><stop
         style="stop-opacity:1;stop-color:#535351"
         offset="0"
         id="stop3785" /><stop
         style="stop-opacity:1;stop-color:#ffffff"
         offset="1"
         id="stop3787" /></linearGradient><clipPath
       clipPathUnits="userSpaceOnUse"
       id="clipPath3799"><path
         d="M 0,280.63 H 595.276 V 0 H 0 Z"
         id="path3797"
         inkscape:connector-curvature="0" /></clipPath><linearGradient
       x1="0"
       y1="0"
       x2="1"
       y2="0"
       gradientUnits="userSpaceOnUse"
       gradientTransform="matrix(40.083496,0,0,-40.083496,152.87891,112.86426)"
       spreadMethod="pad"
       id="linearGradient3821"><stop
         style="stop-opacity:1;stop-color:#535351"
         offset="0"
         id="stop3817" /><stop
         style="stop-opacity:1;stop-color:#ffffff"
         offset="1"
         id="stop3819" /></linearGradient><clipPath
       clipPathUnits="userSpaceOnUse"
       id="clipPath3831"><path
         d="M 0,280.63 H 595.276 V 0 H 0 Z"
         id="path3829"
         inkscape:connector-curvature="0" /></clipPath></defs><sodipodi:namedview
     pagecolor="#ffffff"
     bordercolor="#666666"
     borderopacity="1"
     objecttolerance="10"
     gridtolerance="10"
     guidetolerance="10"
     inkscape:pageopacity="0"
     inkscape:pageshadow="2"
     inkscape:window-width="1680"
     inkscape:window-height="987"
     id="namedview3715"
     showgrid="false"
     inkscape:zoom="1.9591752"
     inkscape:cx="371.07452"
     inkscape:cy="187.08667"
     inkscape:window-x="-8"
     inkscape:window-y="-8"
     inkscape:window-maximized="1"
     inkscape:current-layer="layer1" /><g
     inkscape:groupmode="layer"
     id="layer1"
     inkscape:label="Break Logo Black 1"
     transform="translate(0,-80)"><rect
       style="fill:#000000;stroke-width:0.5747816"
       id="rect3874"
       width="412.41846"
       height="64.312782"
       x="-1.5312525"
       y="80.687233" /></g><g
     id="g3721"
     inkscape:groupmode="layer"
     inkscape:label="Break Logo Black"
     transform="matrix(1.3333333,0,0,-1.3333333,0,65)"><path
       style="fill:#ffffff;stroke-width:0.38281417"
       d="m 3.7515774,28.094324 v 16.287449 h 4.4023652 4.4023654 v -5.726401 -5.726398 l 1.96002,1.218415 c 1.591912,0.989587 2.455252,1.246399 4.59693,1.367415 2.273317,0.128454 2.930625,0.0053 4.767097,-0.893208 3.986461,-1.95039 5.720731,-5.72532 5.452103,-11.867377 -0.132412,-3.027488 -0.330757,-3.883396 -1.406145,-6.067816 -0.761715,-1.547257 -1.793115,-2.956147 -2.63382,-3.597787 L 23.910655,12.033973 13.83112,11.920423 3.7515774,11.806873 Z M 19.125265,18.676318 c 1.066643,0.95304 1.243125,1.38852 1.39095,3.432218 0.342713,4.737893 -0.846975,6.960668 -3.725512,6.960668 -1.16355,0 -1.84983,-0.274493 -2.792805,-1.117035 -1.239495,-1.107488 -1.250183,-1.14705 -1.250183,-4.625175 0,-3.478133 0.01065,-3.517688 1.250183,-4.625176 1.678395,-1.49964 3.467557,-1.508542 5.127367,-0.0255 z"
       id="path3847"
       inkscape:connector-curvature="0" /><path
       style="fill:#ffffff;stroke-width:0.38281417"
       d="m 31.697013,23.518401 v 11.675832 h 9.570353 c 5.263695,0 9.568185,-0.1292 9.56553,-0.287111 -0.003,-0.157911 -0.764257,-1.665241 -1.692442,-3.349621 -1.044255,-1.895025 -1.881555,-3.002812 -2.196353,-2.905912 -1.520752,0.468135 -3.388163,0.160455 -4.315883,-0.711098 -1.454535,-1.366462 -1.791562,-3.014925 -2.019382,-9.877193 l -0.206528,-6.220732 h -4.352647 -4.352648 z"
       id="path3849"
       inkscape:connector-curvature="0" /><path
       style="fill:#ffffff;stroke-width:0.38281417"
       d="m 59.259634,11.581573 c -2.887568,0.676493 -4.240935,1.465335 -6.060533,3.532508 -2.016052,2.29035 -2.90454,4.935502 -2.887252,8.595728 0.0165,3.497137 0.991567,5.964345 3.28176,8.303962 2.365755,2.416808 4.717372,3.29361 9.348863,3.485731 9.217035,0.382336 13.805632,-3.402976 14.407612,-11.885401 l 0.15621,-2.201175 h -9.12333 -9.12333 l 0.0015,-0.861338 c 0.0023,-1.4037 1.442377,-3.352155 2.93994,-3.977872 1.738553,-0.726413 3.545895,-0.42738 5.046015,0.834892 1.04895,0.882623 1.39962,0.941798 5.58048,0.941798 h 4.461195 l -1.16502,-1.693298 c -1.533547,-2.228932 -3.59115,-3.887775 -5.74098,-4.628392 -2.381895,-0.82056 -8.48235,-1.065795 -11.123048,-0.447143 z m 9.187538,14.437418 c 0,2.556863 -2.108708,4.581473 -4.771785,4.581473 -1.859671,0 -3.971078,-1.932233 -4.287706,-3.92385 l -0.228225,-1.435553 h 4.643858 c 4.413113,0 4.643858,0.03863 4.643858,0.77793 z"
       id="path3851"
       inkscape:connector-curvature="0" /><path
       style="fill:#ffffff;stroke-width:0.38281417"
       d="m 98.68949,10.940601 v 3.59436 l -1.903823,-1.309598 c -2.529555,-1.74003 -6.311002,-2.464455 -9.636262,-1.846057 -3.99924,0.743737 -6.155146,3.087952 -6.127456,6.662685 0.03037,3.92376 2.035486,5.501513 8.910541,7.01145 6.593362,1.44807 8.374185,2.07267 8.374185,2.937128 0,1.313482 -1.70886,2.609895 -3.44022,2.609895 -2.066085,0 -4.078088,-0.876278 -4.40949,-1.920458 -0.254438,-0.801645 -0.407228,-0.829747 -3.195105,-0.587782 -5.93781,0.515362 -6.0933,0.625012 -4.61529,3.254782 1.829842,3.255762 5.453145,4.40064 13.148745,4.154691 5.555975,-0.177567 7.253375,-0.730941 9.147745,-2.982268 1.55305,-1.84569 1.78111,-3.443415 1.78339,-12.493561 l 0.002,-8.469112 -4.01955,-2.1052578 -4.019548,-2.1052651 z m -2.752365,5.888362 c 0.696952,0.42492 1.515217,1.366208 1.818367,2.091758 0.54756,1.31049 0.762953,4.023458 0.319433,4.023458 -0.880538,0 -6.761138,-2.071883 -7.380705,-2.600408 -1.123418,-0.958328 -1.220243,-2.67633 -0.207885,-3.68868 0.874837,-0.874838 3.888367,-0.77871 5.45079,0.173872 z"
       id="path3853"
       inkscape:connector-curvature="0" /><path
       style="fill:#ffffff;stroke-width:0.38281417"
       d="m 112.4708,28.100391 v 16.281382 h 4.59377 4.59378 v -8.421912 c 0,-4.632055 0.12919,-8.418272 0.2871,-8.413832 0.15792,0.0045 1.73603,1.727107 3.50693,3.828142 l 3.21982,3.820062 5.3935,-0.0046 5.3935,-0.0046 -4.11525,-4.074837 c -2.26339,-2.241157 -4.11525,-4.141657 -4.11525,-4.223332 0,-0.08168 1.81596,-3.246233 4.03546,-7.032353 2.21951,-3.786113 4.13287,-7.137668 4.25192,-7.44789 0.1836,-0.478463 -0.51541,-0.564053 -4.60674,-0.564053 h -4.82318 l -2.32311,4.634303 c -1.2777,2.548867 -2.44183,4.519478 -2.58694,4.379137 -0.14512,-0.140347 -0.96585,-2.182717 -1.82386,-4.538602 l -1.56001,-4.28343 -4.66071,-0.107483 -4.66073,-0.10749 z"
       id="path3855"
       inkscape:connector-curvature="0" /><path
       style="fill:#ffffff;stroke-width:0.38281417"
       d="m 150.91311,12.564358 c -3.36023,2.049068 -4.93341,5.668673 -4.92731,11.336858 0.005,4.60266 0.87672,6.987705 3.40644,9.319515 2.07246,1.910325 3.83199,2.47608 7.1225,2.290151 2.21017,-0.124886 2.90926,-0.345388 4.3786,-1.381075 0.96168,-0.677852 1.8296,-1.232461 1.92872,-1.232461 0.0991,0 0.18022,2.583997 0.18022,5.742214 v 5.742213 h 4.40235 4.40237 V 28.112174 11.842566 l -9.85747,0.0015 c -8.96881,0.0015 -9.96374,0.06623 -11.03642,0.72036 z m 9.73676,5.565938 c 2.66678,1.379047 3.0515,7.594913 0.62054,10.02588 -1.25451,1.25451 -3.9144,1.281653 -5.06656,0.05168 -1.59023,-1.697587 -2.06076,-4.63092 -1.22535,-7.63887 0.72171,-2.59857 3.25539,-3.688065 5.67137,-2.438708 z"
       id="path3857"
       inkscape:connector-curvature="0" /><path
       style="fill:#ffffff;stroke-width:0.38281417"
       d="m 183.29143,11.581573 c -2.88757,0.676493 -4.24094,1.465335 -6.06054,3.532508 -2.01927,2.294002 -2.9056,4.936297 -2.88337,8.595728 0.0223,3.6738 1.08688,6.24003 3.54076,8.535352 2.7013,2.526754 4.69234,3.140478 10.18832,3.140478 4.14768,0 4.79823,-0.09641 6.69925,-0.992785 4.12261,-1.943918 6.14949,-5.090243 6.43288,-9.98583 l 0.17334,-2.994098 h -9.04533 -9.04531 l 0.002,-0.861338 c 0.002,-1.4037 1.44238,-3.352155 2.93994,-3.977872 1.73855,-0.726413 3.54589,-0.42738 5.04601,0.834892 1.04896,0.882623 1.39963,0.941798 5.58048,0.941798 h 4.4612 l -1.16502,-1.693298 c -1.53355,-2.228932 -3.59114,-3.887775 -5.74097,-4.628392 -2.38191,-0.82056 -8.48236,-1.065795 -11.12305,-0.447143 z m 9.18753,14.462971 c 0,1.35966 -1.19585,3.412327 -2.32949,3.998557 -2.9615,1.531455 -6.20122,-0.13713 -6.74249,-3.47265 l -0.21573,-1.32939 h 4.64386 c 4.46157,0 4.64385,0.03158 4.64385,0.803483 z"
       id="path3859"
       inkscape:connector-curvature="0" /><path
       style="fill:#ffffff;stroke-width:0.38281417"
       d="m 211.65275,11.510368 c -2.92185,0.484898 -4.97871,1.737083 -6.20505,3.777525 -0.56943,0.947468 -1.14797,2.110268 -1.28562,2.583998 -0.24917,0.857497 -0.23084,0.86133 4.11319,0.86133 4.20899,0 4.3808,-0.0324 4.85311,-0.914895 1.48519,-2.775113 7.67884,-2.500328 7.67884,0.340672 0,1.363178 -1.16646,1.92885 -5.93363,2.877511 -4.91203,0.977482 -6.48567,1.565137 -7.98192,2.980717 -1.34896,1.27623 -1.8383,2.480333 -1.84132,4.53078 -0.005,3.074385 2.06438,5.439885 5.67608,6.489835 1.58205,0.459914 3.29589,0.581186 6.76949,0.479011 4.10498,-0.120746 4.84944,-0.248862 6.33989,-1.091048 1.85441,-1.047835 2.76957,-2.122368 3.66555,-4.303863 l 0.58959,-1.435552 h -4.0494 c -3.99436,0 -4.06203,0.015 -4.97955,1.10544 -1.17731,1.39914 -3.09621,1.80096 -4.93387,1.03314 -1.02882,-0.42987 -1.36001,-0.794655 -1.36001,-1.497945 0,-0.511335 0.24675,-1.134488 0.54834,-1.384785 0.30159,-0.250298 2.65768,-0.793575 5.23575,-1.207275 3.32513,-0.533588 5.24502,-1.054665 6.60607,-1.792973 3.66368,-1.98735 4.70462,-6.161948 2.40353,-9.63912 -2.26275,-3.41925 -8.78676,-4.974488 -15.90906,-3.792503 z"
       id="path3861"
       inkscape:connector-curvature="0" /><path
       style="fill:#ffffff;stroke-width:0.38281417"
       d="m 233.05727,23.518401 v 11.675832 h 4.40236 4.40236 V 23.518401 11.842566 h -4.40236 -4.40236 z"
       id="path3863"
       inkscape:connector-curvature="0" /><path
       style="fill:#ffffff;stroke-width:0.38281417"
       d="m 233.05727,41.319259 v 3.062514 h 4.40236 4.40236 v -3.062514 -3.062513 h -4.40236 -4.40236 z"
       id="path3865"
       inkscape:connector-curvature="0" /><path
       style="fill:#ffffff;stroke-width:0.38281417"
       d="m 255.38899,2.2701805 c -4.64817,0.6525075 -7.78478,3.2677876 -7.78478,6.4908602 v 1.1674575 h 4.04426 c 3.9887,0 4.05704,-0.015225 4.97442,-1.1054325 1.16922,-1.3895401 3.09672,-1.8007501 4.90305,-1.0460176 1.81423,0.7580326 2.15646,1.5885526 2.15646,5.2333429 v 3.132225 l -1.47521,-1.332773 c -2.64002,-2.38509 -6.9183,-2.78163 -10.18282,-0.943807 -4.31633,2.429955 -6.35341,9.218348 -4.5692,15.226433 0.7617,2.564917 3.09728,5.056158 5.31829,5.672744 0.92656,0.257228 5.20204,0.425592 10.8404,0.426884 l 9.31041,0.0021 L 272.8014,22.274219 272.67853,9.3542382 271.63137,7.3682006 C 270.4071,5.0462606 268.627,3.5664805 266.16775,2.826358 263.87126,2.135218 258.37173,1.8514255 255.38899,2.270143 Z m 6.85399,17.2187405 c 1.33731,1.051935 1.94033,3.632543 1.41797,6.06822 -0.49277,2.2977 -1.67991,3.505043 -3.71477,3.777975 -1.29417,0.17358 -1.70043,0.03712 -2.79167,-0.937935 -1.15759,-1.034302 -1.29223,-1.378995 -1.43899,-3.683715 -0.17879,-2.807775 0.32959,-4.533555 1.59697,-5.42127 1.16213,-0.81399 3.77828,-0.709605 4.93049,0.196725 z"
       id="path3867"
       inkscape:connector-curvature="0" /><path
       style="fill:#ffffff;stroke-width:0.38281417"
       d="m 278.61215,23.518401 v 11.675832 l 9.47465,-0.0021 c 5.25102,-0.0012 10.10056,-0.17598 10.87871,-0.392113 1.92483,-0.534619 3.59188,-2.544636 4.10856,-4.953809 0.23155,-1.0797 0.421,-5.572207 0.421,-9.983348 v -8.02026 h -4.40236 -4.40236 v 6.833535 c 0,8.835526 -0.40433,10.010288 -3.44533,10.010288 -3.2794,0 -3.82814,-1.452412 -3.82814,-10.132275 v -6.711548 h -4.40237 -4.40236 z"
       id="path3869"
       inkscape:connector-curvature="0" /></g></svg>