<svg
   xmlns="http://www.w3.org/2000/svg"
   viewBox="0 0 108.47916 17.197917"
   version="1.1"
   id="bd-white-text"
 >
    <g id="layer1" transform="translate(0,-279.80207)">
    <style type="text/css">
        .s1 {
        fill:#ffffff;
        }
    </style>  
    <path
       class="s1" d="m 1.368163,287.0812 v -5.74585 H 2.92122 4.474277 v 2.02015 2.02014 l 0.691451,-0.42983 c 0.561591,-0.3491 0.866158,-0.4397 1.621695,-0.48239 0.801976,-0.0453 1.033859,-0.002 1.681725,0.3151 1.4063363,0.68806 2.018147,2.01977 1.923381,4.18655 -0.04671,1.06803 -0.116683,1.36998 -0.4960557,2.14059 -0.268716,0.54584 -0.6325713,1.04286 -0.9291543,1.26922 l -0.487481,0.37205 -3.555836,0.0401 -3.555839,0.04 z m 5.423496,3.32246 c 0.376287,-0.33621 0.438547,-0.48984 0.490696,-1.21081 0.120901,-1.67142 -0.298794,-2.45557 -1.314278,-2.45557 -0.410475,0 -0.652579,0.0968 -0.98524,0.39407 -0.437266,0.3907 -0.441036,0.40465 -0.441036,1.63166 0,1.22701 0.0038,1.24096 0.441036,1.63166 0.592101,0.52904 1.223278,0.53218 1.808822,0.009 z"
       id="path3847" />
    <path
       class="s1" d="m 11.755859,288.69548 v -4.11897 h 3.376207 c 1.856915,0 3.375443,0.0456 3.374507,0.10129 -0.0011,0.0557 -0.269613,0.58746 -0.597056,1.18167 -0.36839,0.66852 -0.663771,1.05932 -0.774825,1.02514 -0.536487,-0.16515 -1.195269,-0.0566 -1.522547,0.25086 -0.513128,0.48206 -0.632024,1.0636 -0.712394,3.48445 l -0.07286,2.19454 h -1.535515 -1.535517 z"
       id="path3849" />
    <path
       class="s1" d="m 21.479338,292.81521 c -1.018669,-0.23865 -1.496107,-0.51694 -2.138021,-1.24619 -0.711218,-0.80798 -1.024657,-1.74113 -1.018558,-3.03238 0.0058,-1.23371 0.349803,-2.10409 1.157732,-2.92945 0.834585,-0.8526 1.664184,-1.16192 3.298072,-1.22969 3.251565,-0.13488 4.87032,1.20049 5.082685,4.1929 l 0.05511,0.77653 H 24.69785 21.479341 l 5.29e-4,0.30386 c 8.21e-4,0.49519 0.50884,1.18257 1.037147,1.4033 0.613323,0.25627 1.250913,0.15077 1.780122,-0.29453 0.370046,-0.31137 0.493755,-0.33224 1.968669,-0.33224 h 1.573811 l -0.410993,0.59736 c -0.541002,0.78631 -1.266878,1.37152 -2.025291,1.63279 -0.840279,0.28947 -2.992384,0.37599 -3.923965,0.15774 z m 3.241161,-5.0932 c 0,-0.902 -0.743906,-1.61624 -1.68338,-1.61624 -0.656051,0 -1.400908,0.68165 -1.512607,1.38425 l -0.08051,0.50643 h 1.63825 c 1.556848,0 1.63825,-0.0136 1.63825,-0.27444 z"
       id="path3851" />
    <path
       class="s1" d="m 35.389316,293.13265 v -1.26801 l -0.671626,0.462 c -0.892371,0.61384 -2.226382,0.8694 -3.39946,0.65125 -1.410843,-0.26238 -2.171398,-1.08936 -2.16163,-2.35045 0.01072,-1.38422 0.718074,-1.94081 3.143441,-2.47348 2.325992,-0.51085 2.954226,-0.7312 2.954226,-1.03616 0,-0.46336 -0.602848,-0.92071 -1.213633,-0.92071 -0.728869,0 -1.438659,0.30913 -1.55557,0.67749 -0.08976,0.28281 -0.143661,0.29272 -1.127162,0.20736 -2.094727,-0.18181 -2.149581,-0.22049 -1.628172,-1.14821 0.645528,-1.14856 1.923749,-1.55245 4.638585,-1.46569 1.960026,0.0627 2.558831,0.25786 3.227121,1.05208 0.547883,0.65112 0.628337,1.21476 0.629142,4.40745 l 7.93e-4,2.98772 -1.418007,0.74268 -1.418006,0.7427 z m -0.970973,-2.07728 c 0.245869,-0.1499 0.534535,-0.48197 0.641479,-0.73793 0.193167,-0.46231 0.269153,-1.41938 0.112689,-1.41938 -0.310634,0 -2.385179,0.73091 -2.603749,0.91736 -0.396316,0.33808 -0.430474,0.94415 -0.07334,1.30129 0.308623,0.30862 1.37173,0.27471 1.922918,-0.0613 z"
       id="path3853" />
    <path
       class="s1" d="m 40.251056,287.07906 v -5.74371 h 1.62058 1.620583 v 2.97106 c 0,1.63409 0.04557,2.96978 0.101283,2.96822 0.05571,-0.002 0.612431,-0.60929 1.237165,-1.35049 l 1.135883,-1.34763 1.902706,0.002 1.902706,0.002 -1.451769,1.43751 c -0.798473,0.79063 -1.451769,1.46108 -1.451769,1.4899 0,0.0288 0.640631,1.1452 1.423623,2.48085 0.782992,1.33566 1.457983,2.51802 1.499981,2.62746 0.06477,0.16879 -0.181825,0.19898 -1.625156,0.19898 h -1.701509 l -0.819541,-1.63488 c -0.450744,-0.89918 -0.861425,-1.59437 -0.912617,-1.54486 -0.05119,0.0495 -0.34073,0.77001 -0.643416,1.60112 l -0.550336,1.5111 -1.644195,0.0379 -1.644202,0.0379 z"
       id="path3855" />
    <path
       class="s1" d="m 53.28348,292.55983 c -1.185413,-0.72287 -1.740398,-1.99979 -1.738244,-3.99939 0.0019,-1.62372 0.309287,-2.46511 1.201716,-3.28772 0.731118,-0.67392 1.351841,-0.87351 2.512658,-0.80792 0.779698,0.0441 1.026322,0.12185 1.544672,0.48722 0.339259,0.23913 0.645443,0.43478 0.680411,0.43478 0.03496,0 0.06358,-0.91158 0.06358,-2.02572 v -2.02573 h 1.553052 1.553059 v 5.73955 5.73956 l -3.477496,-5.3e-4 c -3.163996,-5.3e-4 -3.514987,-0.0234 -3.893404,-0.25413 z m 3.434913,-1.96354 c 0.940779,-0.4865 1.0765,-2.67932 0.218911,-3.53691 -0.442563,-0.44256 -1.380911,-0.45214 -1.787369,-0.0182 -0.560996,0.59887 -0.72699,1.63368 -0.432276,2.69482 0.254603,0.91672 1.148429,1.30107 2.000734,0.86032 z"
       id="path3857" />
    <path
       class="s1" d="m 65.234998,292.90653 c -1.01867,-0.23865 -1.496108,-0.51694 -2.138024,-1.24619 -0.712354,-0.80927 -1.025031,-1.74141 -1.017188,-3.03238 0.0079,-1.29604 0.383426,-2.20134 1.2491,-3.01108 0.952961,-0.89139 1.655355,-1.10789 3.594214,-1.10789 1.463209,0 1.692709,0.034 2.363346,0.35023 1.454367,0.68577 2.169403,1.79572 2.269379,3.52278 l 0.06115,1.05625 h -3.190991 -3.190986 l 7.93e-4,0.30386 c 7.94e-4,0.49519 0.508839,1.18257 1.037146,1.4033 0.613322,0.25627 1.25091,0.15077 1.780119,-0.29453 0.370052,-0.31137 0.49376,-0.33224 1.968669,-0.33224 h 1.573814 l -0.410994,0.59736 c -0.541001,0.78631 -1.266875,1.37152 -2.025287,1.63279 -0.840285,0.28947 -2.992387,0.37599 -3.923964,0.15774 z m 3.241156,-5.10221 c 0,-0.47966 -0.421868,-1.2038 -0.821791,-1.41061 -1.044752,-0.54026 -2.187654,0.0484 -2.378601,1.22508 l -0.0761,0.46898 h 1.63825 c 1.573943,0 1.638247,-0.0111 1.638247,-0.28345 z"
       id="path3859" />
    <path
       class="s1" d="m 75.240243,292.93165 c -1.030764,-0.17106 -1.756379,-0.6128 -2.189004,-1.33263 -0.200882,-0.33424 -0.404979,-0.74445 -0.453538,-0.91157 -0.0879,-0.30251 -0.08144,-0.30386 1.451041,-0.30386 1.484839,0 1.54545,0.0114 1.712068,0.32275 0.523944,0.979 2.708926,0.88206 2.708926,-0.12018 0,-0.4809 -0.411501,-0.68045 -2.093253,-1.01512 -1.732855,-0.34483 -2.288001,-0.55215 -2.815844,-1.05153 -0.475883,-0.45023 -0.648513,-0.87501 -0.649576,-1.59836 -0.0019,-1.08457 0.728265,-1.91907 2.002393,-2.28947 0.558112,-0.16225 1.162717,-0.20503 2.388126,-0.16898 1.448147,0.0426 1.710775,0.0878 2.236574,0.38489 0.654192,0.36966 0.977042,0.74873 1.293124,1.51831 l 0.207994,0.50643 h -1.428538 c -1.409123,0 -1.432994,-0.005 -1.756675,-0.38997 -0.415329,-0.49359 -1.092274,-0.63534 -1.740561,-0.36447 -0.362945,0.15165 -0.47978,0.28034 -0.47978,0.52844 0,0.18039 0.08705,0.40022 0.193443,0.48852 0.106394,0.0883 0.937569,0.27996 1.847056,0.4259 1.17303,0.18824 1.850326,0.37206 2.330474,0.63252 1.292465,0.7011 1.659686,2.1738 0.847913,3.40047 -0.798248,1.20624 -3.099774,1.75489 -5.612363,1.33791 z"
       id="path3861" />
    <path class="s1" d="m 82.791282,288.69548 v -4.11897 h 1.553054 1.553054 v 4.11897 4.11898 h -1.553054 -1.553054 z" id="path3863" />
    <path
       class="s1" d="m 82.791282,282.41574 v -1.08039 h 1.553054 1.553054 v 1.08039 1.08038 h -1.553054 -1.553054 z"
       id="path3865" />
    <path
       class="s1" d="m 90.669415,296.19138 c -1.639772,-0.23019 -2.746296,-1.1528 -2.746296,-2.28983 v -0.41185 h 1.426723 c 1.407126,0 1.431235,0.005 1.754865,0.38997 0.412475,0.4902 1.092454,0.63527 1.729687,0.36901 0.640019,-0.26741 0.760751,-0.5604 0.760751,-1.8462 v -1.10498 l -0.520422,0.47017 c -0.931339,0.84141 -2.44062,0.9813 -3.592272,0.33295 -1.522703,-0.85723 -2.241341,-3.25202 -1.61191,-5.37154 0.268711,-0.90485 1.09265,-1.7837 1.876174,-2.00122 0.326868,-0.0907 1.835163,-0.15014 3.82425,-0.1506 l 3.284506,-7.4e-4 -0.04334,4.55788 -0.04335,4.55789 -0.369414,0.70063 c -0.431895,0.81912 -1.059876,1.34116 -1.927444,1.60226 -0.810152,0.24382 -2.750262,0.34393 -3.802507,0.19622 z m 2.417934,-6.07439 c 0.471773,-0.37109 0.684506,-1.28148 0.500229,-2.14073 -0.173839,-0.81058 -0.592635,-1.2365 -1.310489,-1.33278 -0.456554,-0.0612 -0.599874,-0.0131 -0.984837,0.33088 -0.408372,0.36488 -0.45587,0.48648 -0.507643,1.29953 -0.06307,0.99052 0.116271,1.59934 0.563374,1.9125 0.409972,0.28716 1.332892,0.25034 1.739366,-0.0694 z"
       id="path3867" />
    <path
       class="s1" d="m 98.862028,288.69548 v -4.11897 l 3.342452,7.4e-4 c 1.85244,4.2e-4 3.56325,0.0621 3.83776,0.13833 0.67905,0.1886 1.26715,0.89769 1.44942,1.74759 0.0817,0.3809 0.14852,1.96575 0.14852,3.52191 v 2.82937 h -1.55306 -1.55306 v -2.41072 c 0,-3.11698 -0.14264,-3.53141 -1.21543,-3.53141 -1.1569,0 -1.35049,0.51238 -1.35049,3.57444 v 2.36769 h -1.55306 -1.553052 z"
       id="path3869" />
  </g>
</svg>
